<svg id="Logo" xmlns="http://www.w3.org/2000/svg" viewBox="0 0 172.02 107.3"><defs><style>.cls-1{fill:#333;}</style></defs><path class="cls-1" d="M193.46,168.33c0-.08-.07-.16-.1-.23l-.25-.48c-.22-.43-.45-.85-.69-1.27l-.27-.48c-.26-.44-.53-.86-.8-1.29l-.24-.37a35.38,35.38,0,0,0-2.34-3.13l-.3-.34c-.32-.38-.64-.74-1-1.11l-.16-.18h0a35.67,35.67,0,0,0-17.72-10.23h0l-.36-.07c-.43-.1-.86-.19-1.3-.27l-.65-.12-1.3-.19-.67-.09c-.46-.05-.92-.08-1.38-.12l-.6,0c-.66,0-1.33-.06-2-.06s-1.33,0-2,.06l-.59,0c-.47,0-.93.07-1.39.12l-.67.09-1.29.19-.66.12c-.43.08-.87.17-1.3.27l-.36.07h0a35.64,35.64,0,0,0-17.71,10.23h0l-.17.19c-.33.36-.66.72-1,1.1l-.3.34a35.38,35.38,0,0,0-2.34,3.13l-.24.37c-.27.43-.54.85-.79,1.29-.1.16-.19.32-.28.48-.24.42-.47.84-.69,1.27l-.24.48c0,.07-.07.15-.11.23ZM183,161.15l-11,4.4-1.72-11.79A31.54,31.54,0,0,1,183,161.15Zm-30.62-7.39-1.73,11.79-11.05-4.4A31.52,31.52,0,0,1,152.42,153.76Z" transform="translate(-75.79 -130.34)"/><path class="cls-1" d="M129.22,199.66l.11.23.24.48c.22.42.45.85.69,1.26.09.17.18.33.28.49.25.43.52.86.79,1.28l.24.37a32.67,32.67,0,0,0,2.34,3.13l.3.35c.32.37.65.74,1,1.1l.17.19h0a35.65,35.65,0,0,0,17.71,10.24h0l.36.07c.43.1.87.19,1.3.27l.66.12,1.3.19.66.08c.46.05.93.09,1.39.12l.59.05c.66,0,1.33.06,2,.06s1.34,0,2-.06l.59-.05c.47,0,.93-.07,1.39-.12l.66-.08,1.31-.19.65-.12c.44-.08.87-.17,1.3-.27l.36-.07h0a35.68,35.68,0,0,0,17.72-10.24h0c0-.06.1-.13.16-.19.34-.36.66-.73,1-1.1.09-.12.19-.23.29-.34a34.11,34.11,0,0,0,2.34-3.14l.24-.37c.27-.42.54-.85.8-1.28l.27-.49c.24-.41.47-.84.69-1.27l.25-.47c0-.08.07-.15.1-.23Zm10.42,7.17,11.05-4.39,1.73,11.79A31.54,31.54,0,0,1,139.64,206.83Zm30.63,7.4L172,202.44l11,4.39A31.57,31.57,0,0,1,170.27,214.23Z" transform="translate(-75.79 -130.34)"/><path class="cls-1" d="M127,168.33a37.72,37.72,0,0,1,68.63,0H212a1,1,0,0,0,.35-1.12,53.67,53.67,0,0,0-6.23-12.83A1,1,0,0,0,205,154l-2.5.74a1,1,0,0,1-1.14-1.5l1.41-2.27a1,1,0,0,0-.07-1.17,54.07,54.07,0,0,0-10.41-9.63,1,1,0,0,0-1.19,0l-2.25,1.73a1,1,0,0,1-1.6-1l.54-2.85a1,1,0,0,0-.5-1.07,53.49,53.49,0,0,0-13.15-5.13,1,1,0,0,0-1.09.46l-1.55,2.55a1,1,0,0,1-1.85-.33l-.55-3a1,1,0,0,0-.85-.82,53.85,53.85,0,0,0-6.88-.44,55.38,55.38,0,0,0-7.21.48,1,1,0,0,0-.85.83l-.53,3a1,1,0,0,1-1.84.35l-1.58-2.55a1,1,0,0,0-1.1-.45,53.33,53.33,0,0,0-13.1,5.21,1,1,0,0,0-.49,1.07l.56,2.87a1,1,0,0,1-1.59,1l-2.29-1.74a1,1,0,0,0-1.2,0A54.19,54.19,0,0,0,119.8,150a1,1,0,0,0-.07,1.17l1.46,2.31a1,1,0,0,1-1.13,1.51l-2.56-.74a1,1,0,0,0-1.13.41,53.76,53.76,0,0,0-6.13,12.86,1,1,0,0,0,.08.77Z" transform="translate(-75.79 -130.34)"/><path class="cls-1" d="M195.66,199.66a37.72,37.72,0,0,1-68.63,0H110a52.76,52.76,0,0,0,2.58,6.79,1,1,0,0,0,1,.58l1.87-.19a1,1,0,0,1,.84,1.68l-1.21,1.32A1,1,0,0,0,115,211a54,54,0,0,0,9,11.47,1,1,0,0,0,1.16.17l1.43-.73a1,1,0,0,1,1.39,1.26l-.56,1.45a1,1,0,0,0,.3,1.14,53.81,53.81,0,0,0,12.53,7.56,1,1,0,0,0,1.15-.26l1-1.07a1,1,0,0,1,1.75.68v1.41a1,1,0,0,0,.69,1,53.48,53.48,0,0,0,14.45,2.57,1,1,0,0,0,1-.65l.47-1.26a1,1,0,0,1,1.88,0L163,237a1,1,0,0,0,1,.65,53.44,53.44,0,0,0,14.43-2.71,1,1,0,0,0,.68-1v-1.39a1,1,0,0,1,1.75-.68l.95,1a1,1,0,0,0,1.15.25,53.46,53.46,0,0,0,12.47-7.68,1,1,0,0,0,.29-1.14l-.56-1.41a1,1,0,0,1,1.39-1.27l1.39.7a1,1,0,0,0,1.16-.18A53.85,53.85,0,0,0,208,210.63a1,1,0,0,0-.14-1.18l-1.19-1.28a1,1,0,0,1,.83-1.68l1.81.17a1,1,0,0,0,1-.59,54.07,54.07,0,0,0,2.4-6.41Z" transform="translate(-75.79 -130.34)"/><path class="cls-1" d="M85.08,174.28q6,0,6,4.93a9.67,9.67,0,0,1-.18,1.78l-.87,5a8.28,8.28,0,0,1-2.61,5.16,8.55,8.55,0,0,1-5.63,1.67c-2.41,0-4.1-.56-5-1.67a4.78,4.78,0,0,1-1-3.18,11.25,11.25,0,0,1,.2-2l.88-5Q78,174.29,85.08,174.28ZM82.5,189a2.92,2.92,0,0,0,2-.66,4,4,0,0,0,1-2.4l.85-4.8a6.35,6.35,0,0,0,.08-.9,1.81,1.81,0,0,0-2-2q-2.58,0-3.08,2.93l-.85,4.8a7.87,7.87,0,0,0-.1,1.3C80.4,188.36,81.1,189,82.5,189Z" transform="translate(-75.79 -130.34)"/><path class="cls-1" d="M114.84,178.36h-6.16l-2.47,14.11h-4.53l2.48-14.11H98l.71-3.9h16.86Z" transform="translate(-75.79 -130.34)"/><path class="cls-1" d="M124.85,174.46c1.9,0,3.25.41,4.05,1.25a3.34,3.34,0,0,1,.9,2.4,5.63,5.63,0,0,1-.1,1l-.35,2a6.33,6.33,0,0,1-1,2.63,4.53,4.53,0,0,1-1.64,1.43l2.27,7.3h-5l-2.1-6.73h-1.55l-1,6.73h-4.8l3.17-18Zm-1.58,3.9H121.4l-.65,4.35h1.75a2.13,2.13,0,0,0,2.48-2.32C125,179,124.41,178.36,123.27,178.36Z" transform="translate(-75.79 -130.34)"/><path class="cls-1" d="M139.74,192.47l.15-3.93h-4.18l-1.23,3.93H129.7l6.43-18h8.26l.1,18Zm-1-13.63-2,6.35H140l.28-6.35Z" transform="translate(-75.79 -130.34)"/><path class="cls-1" d="M163.94,174.46l-3.16,18h-4.53l-3.15-9.86-1.7,9.86h-4.53l3.18-18h4.65l3.11,9.21,1.62-9.21Z" transform="translate(-75.79 -130.34)"/><path class="cls-1" d="M169.09,187.34c0,1.15.83,1.73,2.49,1.73s2.49-.52,2.49-1.55a1.55,1.55,0,0,0-.85-1.35,8.65,8.65,0,0,0-2.07-.88c-.8-.23-1.61-.5-2.42-.81a5.1,5.1,0,0,1-2.07-1.45,3.69,3.69,0,0,1-.85-2.47q0-6.28,8.09-6.28a7.5,7.5,0,0,1,4.46,1.11,3.65,3.65,0,0,1,1.52,3.1,5.22,5.22,0,0,1-.19,1.38,3.24,3.24,0,0,1-.39.94l-.2.3h-4.43a2,2,0,0,0,.55-1.45c0-1.08-.71-1.63-2.13-1.63q-2.67,0-2.67,1.71a1.52,1.52,0,0,0,.85,1.35,7.7,7.7,0,0,0,2.06.79c.81.19,1.62.43,2.44.71a4.71,4.71,0,0,1,2.08,1.41,3.8,3.8,0,0,1,.85,2.57,5.68,5.68,0,0,1-1.9,4.71q-1.91,1.54-5.86,1.54c-2.63,0-4.44-.46-5.4-1.4a3.86,3.86,0,0,1-1.08-2.9,8.59,8.59,0,0,1,.15-1.53l.08-.4h4.5l-.05.3A2.68,2.68,0,0,0,169.09,187.34Z" transform="translate(-75.79 -130.34)"/><path class="cls-1" d="M189,187h-3l-1,5.48h-4.5l3.17-18h7.64a5.3,5.3,0,0,1,4,1.3,3.76,3.76,0,0,1,.87,2.55,6.08,6.08,0,0,1-.1,1.1l-.5,2.83a5.28,5.28,0,0,1-2.2,3.41A7.29,7.29,0,0,1,189,187Zm.78-8.63h-2.25l-.83,4.73h2.23a2.11,2.11,0,0,0,2.38-1.83l.17-1a3.12,3.12,0,0,0,0-.6,1.34,1.34,0,0,0-.37-.83A1.73,1.73,0,0,0,189.76,178.36Z" transform="translate(-75.79 -130.34)"/><path class="cls-1" d="M206.23,174.28q6,0,6,4.93a9.67,9.67,0,0,1-.18,1.78l-.87,5a8.33,8.33,0,0,1-2.61,5.16,8.55,8.55,0,0,1-5.63,1.67q-3.63,0-5.05-1.67a4.78,4.78,0,0,1-1-3.18,11.25,11.25,0,0,1,.2-2l.88-5Q199.19,174.29,206.23,174.28ZM203.65,189a2.92,2.92,0,0,0,2-.66,4,4,0,0,0,1-2.4l.85-4.8a6.35,6.35,0,0,0,.08-.9,1.81,1.81,0,0,0-2.06-2c-1.71,0-2.74,1-3.07,2.93l-.85,4.8a7.87,7.87,0,0,0-.1,1.3C201.55,188.36,202.25,189,203.65,189Z" transform="translate(-75.79 -130.34)"/><path class="cls-1" d="M223.54,174.46c1.9,0,3.25.41,4.06,1.25a3.34,3.34,0,0,1,.9,2.4,6.63,6.63,0,0,1-.1,1l-.35,2a6.33,6.33,0,0,1-1,2.63,4.53,4.53,0,0,1-1.64,1.43l2.28,7.3h-5.06l-2.1-6.73h-1.55l-1,6.73h-4.8l3.17-18Zm-1.57,3.9h-1.88l-.65,4.35h1.75a2.13,2.13,0,0,0,2.48-2.32C223.67,179,223.1,178.36,222,178.36Z" transform="translate(-75.79 -130.34)"/><path class="cls-1" d="M247.11,178.36H241l-2.48,14.11H234l2.48-14.11h-6.18l.7-3.9h16.86Z" transform="translate(-75.79 -130.34)"/></svg>