<svg id="Rouge" xmlns="http://www.w3.org/2000/svg" viewBox="0 0 98.74 98.7"><defs><style>.cls-1{fill:#333;}</style></defs><path class="cls-1" d="M194.31,157.29a.92.92,0,0,0-.83-.72l-2.14-.18a.92.92,0,0,1-.48-1.66l1.78-1.34a.93.93,0,0,0,.32-1,49.4,49.4,0,0,0-5.73-11.8.93.93,0,0,0-1-.37l-2.3.68a.93.93,0,0,1-1-1.38l1.3-2.09a.92.92,0,0,0-.07-1.08,49.38,49.38,0,0,0-9.57-8.86.93.93,0,0,0-1.1,0l-2.06,1.59a.93.93,0,0,1-1.48-.9l.5-2.62a.93.93,0,0,0-.46-1,48.86,48.86,0,0,0-12.09-4.72.91.91,0,0,0-1,.42l-1.42,2.35a.93.93,0,0,1-1.71-.31l-.5-2.71a.92.92,0,0,0-.79-.76,50.7,50.7,0,0,0-6.32-.4,50,50,0,0,0-6.63.44,1,1,0,0,0-.79.76l-.48,2.73a.93.93,0,0,1-1.7.32L135,120.35a.92.92,0,0,0-1-.41,49,49,0,0,0-12,4.79.93.93,0,0,0-.45,1l.52,2.64a.93.93,0,0,1-1.47.92l-2.11-1.6a.9.9,0,0,0-1.09,0,49.62,49.62,0,0,0-9.51,8.91.93.93,0,0,0-.06,1.08l1.35,2.12a.93.93,0,0,1-1,1.39l-2.36-.68a.93.93,0,0,0-1,.38,48.88,48.88,0,0,0-5.64,11.82.93.93,0,0,0,.33,1l1.84,1.36a.92.92,0,0,1-.47,1.66l-2.2.2a.92.92,0,0,0-.82.73,49.32,49.32,0,0,0-1,10.16c0,1,0,2,.09,3a.94.94,0,0,0,.68.83l1.93.53a.92.92,0,0,1,.16,1.72l-1.72.85a1,1,0,0,0-.51,1,49.55,49.55,0,0,0,3.88,12.72.93.93,0,0,0,.94.53l1.71-.18a.93.93,0,0,1,.78,1.55l-1.12,1.22a.94.94,0,0,0-.12,1.09,49.74,49.74,0,0,0,8.26,10.55.92.92,0,0,0,1.06.15l1.32-.67a.92.92,0,0,1,1.28,1.16l-.52,1.34a.93.93,0,0,0,.28,1.05,49.36,49.36,0,0,0,11.53,6.95.92.92,0,0,0,1.05-.23l.88-1a.93.93,0,0,1,1.62.62v1.3a.92.92,0,0,0,.64.88,49.08,49.08,0,0,0,13.29,2.37.92.92,0,0,0,.9-.6l.44-1.16a.93.93,0,0,1,1.73,0l.44,1.15a.92.92,0,0,0,.91.6,49,49,0,0,0,13.27-2.49.94.94,0,0,0,.63-.89l0-1.27a.93.93,0,0,1,1.62-.64l.87,1a.94.94,0,0,0,1.06.23A49.72,49.72,0,0,0,177.39,206a.93.93,0,0,0,.27-1.06l-.52-1.29a.93.93,0,0,1,1.28-1.17l1.28.64a.93.93,0,0,0,1.07-.17,49.56,49.56,0,0,0,8.17-10.63.91.91,0,0,0-.13-1.08L187.72,190a.93.93,0,0,1,.77-1.55l1.66.16a.94.94,0,0,0,.93-.54,48.69,48.69,0,0,0,3.78-12.77.93.93,0,0,0-.51-1l-1.68-.82a.92.92,0,0,1,.16-1.72l1.86-.52a.93.93,0,0,0,.67-.84c0-.88.07-1.76.07-2.65A50,50,0,0,0,194.31,157.29ZM146.06,202.5a34.7,34.7,0,1,1,34.71-34.7A34.7,34.7,0,0,1,146.06,202.5Z" transform="translate(-96.69 -118.45)"/><path class="cls-1" d="M171.29,188.87a33.62,33.62,0,0,0,2.16-2.87c.07-.12.14-.24.22-.35.25-.39.49-.78.73-1.18l.26-.44.63-1.17c.07-.14.15-.29.22-.44.22-.44.43-.89.63-1.34,0-.1.09-.19.13-.29a31.92,31.92,0,0,0,1.27-3.47l0-.1h0a33,33,0,0,0,0-18.82h0l0-.1a31.92,31.92,0,0,0-1.27-3.47c0-.1-.09-.19-.13-.29-.2-.45-.41-.9-.63-1.34-.07-.15-.15-.29-.22-.44l-.63-1.16c-.09-.15-.18-.3-.26-.45-.24-.4-.48-.79-.73-1.18-.08-.11-.15-.23-.22-.35-.67-1-1.39-1.95-2.15-2.87l-.28-.33-.9-1-.16-.18h0a32.86,32.86,0,0,0-16.3-9.42h0l-.33-.07c-.4-.09-.8-.18-1.2-.25l-.6-.11-1.19-.17-.62-.08c-.42,0-.84-.08-1.27-.11l-.55-.05c-.61,0-1.22-.05-1.84-.05s-1.23,0-1.83.05l-.56.05c-.42,0-.85.06-1.27.11l-.61.08-1.2.17-.6.11c-.4.07-.8.16-1.19.25l-.34.07h0a32.83,32.83,0,0,0-16.29,9.42h0l-.15.18c-.31.33-.61.66-.9,1l-.28.33a33,33,0,0,0-2.15,2.87l-.22.35c-.26.39-.5.78-.73,1.18-.09.15-.18.3-.26.45-.22.38-.43.77-.63,1.16l-.23.44c-.22.44-.43.89-.62,1.34l-.14.29a34.11,34.11,0,0,0-1.26,3.47,1,1,0,0,1,0,.1h0a32.77,32.77,0,0,0,0,18.82h0l0,.1a34.11,34.11,0,0,0,1.26,3.47c.05.1.09.19.13.29.2.45.41.9.63,1.34.08.15.15.3.23.44q.3.58.63,1.17c.08.15.17.3.26.44.23.4.48.79.73,1.18l.22.35a31.54,31.54,0,0,0,2.15,2.87c.09.11.18.22.28.32.29.35.59.68.9,1l.15.18h0a32.83,32.83,0,0,0,16.29,9.42h0l.33.06c.4.09.8.18,1.2.25l.6.11,1.2.17.61.08c.42.05.85.08,1.28.11l.54,0c.61,0,1.23.05,1.84.05s1.23,0,1.84-.05l.54,0c.43,0,.86-.06,1.28-.11l.61-.08,1.2-.17.6-.11c.4-.07.8-.16,1.2-.25l.33-.06h0a32.86,32.86,0,0,0,16.3-9.42h0l.16-.18c.3-.33.6-.66.9-1Zm3.77-21.07a28.83,28.83,0,0,1-.81,6.8l-8.6-6.8,8.6-6.79A28.69,28.69,0,0,1,175.06,167.8Zm-9-21-10.16,4.05L154.27,140A29,29,0,0,1,166,146.79Zm-20,31.37a10.36,10.36,0,1,1,10.36-10.36A10.36,10.36,0,0,1,146.06,178.16ZM137.85,140l-1.58,10.85-10.17-4.05A29,29,0,0,1,137.85,140ZM117.06,167.8a29.22,29.22,0,0,1,.81-6.79l8.6,6.79-8.6,6.8A29.37,29.37,0,0,1,117.06,167.8Zm9,21,10.17-4.05,1.58,10.85A29,29,0,0,1,126.1,188.81Zm28.17,6.8,1.59-10.85L166,188.81A29,29,0,0,1,154.27,195.61Z" transform="translate(-96.69 -118.45)"/></svg>